# AST/ASF file generated using VICON BodyLanguage
# -----------------------------------------------
:version 1.10
:name VICON
:units
  mass 1.0
  length 0.45
  angle deg
:documentation
   .ast/.asf automatically generated from VICON data using
   VICON BodyBuilder and BodyLanguage model FoxedUp or BRILLIANT.MOD
:root
   order TX TY TZ RX RY RZ
   axis XYZ
   position 0 0 0  
   orientation 0 0 0 
:bonedata
  begin
     id 1 
     name lhipjoint
     direction 0.621036 -0.695554 0.361275 
     length 2.46325 
     axis 0 0 0  XYZ
  end
  begin
     id 2 
     name lfemur
     direction 0.34202 -0.939693 0  
     length 6.54784  
     axis 0 0 20  XYZ
    dof rx ry rz
    limits (-160.0 20.0)
           (-70.0 70.0)
           (-60.0 70.0)
  end
  begin
     id 3 
     name ltibia
     direction 0.34202 -0.939693 0   
     length 7.84737   
     axis 0 0 20   XYZ
    dof rx
    limits (-10.0 170.0)
  end
  begin
     id 4 
     name lfoot
     direction 0.0790693 -0.217241 0.97291   
     length 2.59747   
     axis -90 7.62852e-016 20   XYZ
    dof rx rz
    limits (-45.0 90.0)
           (-70.0 20.0)
  end
  begin
     id 5 
     name ltoes
     direction 1.53572e-011 -4.21898e-011 1   
     length 1.29919   
     axis -90 7.62852e-016 20   XYZ
    dof rx
    limits (-90.0 20.0)
  end
  begin
     id 6 
     name rhipjoint
     direction -0.602353 -0.708375 0.367935   
     length 2.41867  
     axis 0 0 0  XYZ 
  end
  begin
     id 7 
     name rfemur
     direction -0.34202 -0.939693 0   
     length 6.92065   
     axis 0 0 -20   XYZ
    dof rx ry rz
    limits (-160.0 20.0)
           (-70.0 70.0)
           (-70.0 60.0)
  end
  begin
     id 8 
     name rtibia
     direction -0.34202 -0.939693 0   
     length 7.88883   
     axis 0 0 -20   XYZ
    dof rx
    limits (-10.0 170.0)
 end
 begin
     id 9 
     name rfoot
     direction -0.0768692 -0.211196 0.974416   
     length 2.43714  
     axis -90 -7.62852e-016 -20   XYZ
    dof rx rz
    limits (-45.0 90.0)
           (-20.0 70.0)
  end
  begin
     id 10 
     name rtoes
     direction -1.53575e-011 -4.21933e-011 1   
     length 1.22113   
     axis -90 -7.62852e-016 -20   XYZ
    dof rx
    limits (-90.0 20.0)
  end
  begin
     id 11 
     name lowerback
     direction 0.0197937 0.98943 -0.143655   
     length 2.16931   
     axis 0 0 0   XYZ
    dof rx ry rz
    limits (-20.0 45.0)
           (-30.0 30.0)
           (-30.0 30.0)
  end
  begin
     id 12 
     name upperback
     direction -0.00183968 0.999975 0.00684288   
     length 2.17221   
     axis 0 0 0   XYZ
    dof rx ry rz
    limits (-20.0 45.0)
           (-30.0 30.0)
           (-30.0 30.0)
  end
  begin
     id 13 
     name thorax
     direction -0.00950244 0.997208 0.0740685   
     length 2.22549   
     axis 0 0 0   XYZ
    dof rx ry rz
    limits (-20.0 45.0)
           (-30.0 30.0)
           (-30.0 30.0)
  end
  begin
     id 14 
     name lowerneck
     direction 0.0218238 0.996215 0.0841425   
     length 1.77269   
     axis 0 0 0   XYZ
    dof rx ry rz
    limits (-20.0 45.0)
           (-30.0 30.0)
           (-30.0 30.0)
  end
  begin
     id 15 
     name upperneck
     direction -0.00430652 0.994214 -0.107332   
     length 1.76534   
     axis 0 0 0   XYZ
    dof rx ry rz
    limits (-20.0 45.0)
           (-30.0 30.0)
           (-30.0 30.0)
  end
  begin
     id 16
     name head
     direction -0.00328946 0.998959 -0.0454998  
     length 1.82634  
     axis 0 0 0   XYZ
    dof rx ry rz
    limits (-20.0 45.0)
           (-30.0 30.0)
           (-30.0 30.0)
  end
  begin
     id 17 
     name lclavicle
     direction 0.970962 0.239191 0.00450212  
     length 3.84872  
     axis 0 0 0   XYZ
    dof ry rz
    limits (-20.0 10.0)
           (0.0 20.0)
  end
  begin
     id 18 
     name lhumerus
     direction 1 -4.48966e-011 5.74696e-028   
     length 5.22771   
     axis 180 -30 -90   XYZ
    dof rx ry rz
    limits (-60.0 90.0)
           (-90.0 90.0)
           (-90.0 90.0)
  end
  begin
     id 19
     name lradius
     direction 1 -4.4896e-011 4.25109e-027   
     length 3.45251   
     axis 180 -30 -90   XYZ
    dof rx
    limits (-10.0 170.0)
  end
  begin
     id 20
     name lwrist
     direction 1 -4.48971e-011 1.15382e-027   
     length 1.72626   
     axis -5.52449e-016 90 90   XYZ
    dof ry
    limits (-180.0 0.0)
 end
  begin
     id 21 
     name lhand
     direction 1 -4.49034e-011 2.30765e-027   
     length 0.552119   
     axis -1.47248e-015 90 90   XYZ
    dof rx rz
    limits (-90.0 90.0)
           (-45.0 45.0)
  end
  begin
     id 22 
     name lfingers
     direction 1 -4.48951e-011 4.61529e-027   
     length 0.445133   
     axis -2.94495e-015 90 90   XYZ
    dof rx
    limits (0.0 90.0)
  end
  begin
     id 23
     name lthumb
     direction 0.707107 -6.34991e-011 0.707107   
     length 0.639124   
     axis -90 45 2.85299e-015   XYZ
    dof rx rz
    limits (-45.0 45.0)
           (-45.0 45.0)
  end
  begin
     id 24 
     name rclavicle
     direction -0.97424 0.222511 -0.0366699   
     length 3.73439  
     axis 0 0 0   XYZ 
    dof ry rz
    limits (-10.0 20.0)
           (-20.0 0.0)
  end
  begin
     id 25 
     name rhumerus
     direction -1 -4.48956e-011 -4.97258e-028  
     length 5.2398   
     axis 180 30 90   XYZ
    dof rx ry rz
    limits (-90.0 60.0)
           (-90.0 90.0)
           (-90.0 90.0)
  end
  begin
     id 26 
     name rradius
     direction -1 -4.4897e-011 -1.72611e-027   
     length 3.48042   
     axis 180 30 90   XYZ
    dof rx
    limits (-10.0 170.0)
  end
  begin
     id 27 
     name rwrist
     direction -1 -4.48976e-011 1.15382e-027   
     length 1.74021   
     axis -5.52449e-016 -90 -90   XYZ
    dof ry
    limits (-180.0 0.0)
  end
  begin
     id 28
     name rhand
     direction -1 -4.48963e-011 2.30765e-027   
     length 0.618713   
     axis -1.47248e-015 -90 -90   XYZ
    dof rx rz
    limits (-90.0 90.0)
           (-45.0 45.0)
  end
  begin
     id 29
     name rfingers
     direction -1 -4.4888e-011 4.61529e-027   
     length 0.498823   
     axis -2.94495e-015 -90 -90   XYZ
    dof rx
    limits (0.0 90.0)
  end
  begin
     id 30
     name rthumb
     direction -0.707107 -6.34968e-011 0.707107   
     length 0.716213   
     axis -90 -45 -2.85299e-015   XYZ
    dof rx rz
    limits (-45.0 45.0)
           (-45.0 45.0)
  end
:hierarchy
  begin
    root lhipjoint rhipjoint lowerback
    lhipjoint lfemur
    lfemur ltibia
    ltibia lfoot
    lfoot ltoes
    rhipjoint rfemur
    rfemur rtibia
    rtibia rfoot
    rfoot rtoes
    lowerback upperback
    upperback thorax
    thorax lowerneck lclavicle rclavicle
    lowerneck upperneck
    upperneck head
    lclavicle lhumerus
    lhumerus lradius
    lradius lwrist
    lwrist lhand lthumb
    lhand lfingers
    rclavicle rhumerus
    rhumerus rradius
    rradius rwrist
    rwrist rhand rthumb
    rhand rfingers
  end

#!OML:ASF G:\JayActor3\Patient Classification 1\Patient 1\Session 5\male.ASF
:FULLY-SPECIFIED
:DEGREES
1
root 52.5277 13.9388 -5.71471 14.6824 -85.5126 5.22424
lowerback 26.1246 -0.823339 0.915307
upperback 5.07553 -1.2367 -0.491647
thorax -8.88427 -0.764343 -0.641642
lowerneck -5.66606 -0.201478 1.27528
upperneck -14.862 -0.579051 1.94123
head -3.85115 -0.653406 0.446525
rclavicle -6.65929e-015 -5.96354e-016
rhumerus -17.6196 -0.296151 -87.4458
rradius 45.7491
rwrist -10.1627
rhand -19.3918 -6.91698
rfingers 7.12502
rthumb 6.92691 -36.7837
lclavicle -6.65929e-015 -5.96354e-016
lhumerus -19.3306 -5.33063 84.4543
lradius 46.8818
lwrist 27.3143
lhand -18.0059 13.8078
lfingers 7.12502
lthumb 8.26467 43.6262
rfemur -69.4015 -8.9158 23.1979
rtibia 78.6676
rfoot -27.7793 -9.65397
rtoes -0.412126
lfemur -66.6903 6.47112 -20.7305
ltibia 72.7126
lfoot -23.7736 7.44694
ltoes -10.3006
2
root 52.5277 13.9408 -5.71424 14.7868 -85.5256 5.11945
lowerback 26.1247 -0.821037 0.913619
upperback 5.07909 -1.23433 -0.4898
thorax -8.88021 -0.763279 -0.639419
lowerneck -5.67628 -0.194176 1.27928
upperneck -14.8659 -0.569742 1.94288
head -3.85073 -0.649311 0.44623
rclavicle 7.35503e-015 7.7526e-015
rhumerus -17.6257 -0.260815 -87.4466
rradius 45.7737
rwrist -10.1858
rhand -19.4199 -6.9624
rfingers 7.12502
rthumb 6.89985 -36.83
lclavicle 7.35503e-015 7.7526e-015
lhumerus -19.3403 -5.34189 84.4531
lradius 46.8907
lwrist 27.3033
lhand -18.0241 13.7551
lfingers 7.12502
lthumb 8.24712 43.5741
rfemur -69.389 -8.90408 23.1961
rtibia 78.6667
rfoot -27.8093 -9.59762
rtoes -0.28545
lfemur -66.6982 6.59284 -20.7827
ltibia 72.7068
lfoot -23.747 7.37856
ltoes -10.3871
3
root 52.5274 13.9341 -5.714 14.6824 -85.5205 5.2302
lowerback 26.115 -0.821442 0.90723
upperback 5.09018 -1.23747 -0.492045
thorax -8.86283 -0.764781 -0.637424
lowerneck -5.69632 -0.20153 1.29983
upperneck -14.8812 -0.583569 1.92795
head -3.8526 -0.657542 0.438045
rclavicle -7.95139e-015 1.39149e-015
rhumerus -17.5982 -0.2617 -87.4478
rradius 45.7773
rwrist -10.1923
rhand -19.4381 -6.9508
rfingers 7.12502
rthumb 6.88227 -36.8189
lclavicle -7.95139e-015 1.39149e-015
lhumerus -19.3267 -5.32978 84.4513
lradius 46.9041
lwrist 27.2926
lhand -17.9853 13.7872
lfingers 7.12502
lthumb 8.28448 43.6048
rfemur -69.4416 -8.91819 23.1988
rtibia 78.7112
rfoot -27.7915 -9.67202
rtoes -0.489704
lfemur -66.7522 6.64817 -20.8227
ltibia 72.7525
lfoot -23.7549 7.31077
ltoes -10.37
4
root 52.5275 13.936 -5.71403 14.7983 -85.5217 5.11483
lowerback 26.1214 -0.820169 0.911383
upperback 5.08169 -1.23343 -0.48485
thorax -8.87542 -0.762766 -0.633005
lowerneck -5.67802 -0.19812 1.29846
upperneck -14.8844 -0.578843 1.91981
head -3.85714 -0.654704 0.435628
rclavicle 2.5345e-014 1.80894e-014
rhumerus -17.6126 -0.250831 -87.432
rradius 45.7782
rwrist -10.2007
rhand -19.4084 -6.91796
rfingers 7.12502
rthumb 6.91094 -36.7852
lclavicle 2.5345e-014 1.80894e-014
lhumerus -19.3394 -5.35598 84.4626
lradius 46.8942
lwrist 27.3094
lhand -17.9946 13.6874
lfingers 7.12502
lthumb 8.2755 43.5053
rfemur -69.428 -8.90698 23.1926
rtibia 78.7189
rfoot -27.8608 -9.53206
rtoes -0.0709964
lfemur -66.7432 6.63964 -20.8087
ltibia 72.7474
lfoot -23.7541 7.33872
ltoes -10.4225
5
root 52.5275 13.9357 -5.71379 14.8028 -85.5224 5.11184
lowerback 26.12 -0.819538 0.90952
upperback 5.08299 -1.23293 -0.482199
thorax -8.87319 -0.762472 -0.629186
lowerneck -5.67742 -0.201149 1.2963
upperneck -14.8844 -0.582742 1.92148
head -3.85723 -0.656607 0.436621
rclavicle 9.74045e-015 3.3197e-014
rhumerus -17.6099 -0.24121 -87.4239
rradius 45.7849
rwrist -10.2082
rhand -19.4078 -6.90581
rfingers 7.12502
rthumb 6.91148 -36.773
lclavicle 9.74045e-015 3.3197e-014
lhumerus -19.3417 -5.36663 84.4679
lradius 46.896
lwrist 27.3179
lhand -17.987 13.6206
lfingers 7.12502
lthumb 8.28286 43.4383
rfemur -69.4319 -8.90587 23.1864
rtibia 78.7348
rfoot -27.8935 -9.47714
rtoes 0.0829923
lfemur -66.7518 6.66104 -20.8205
ltibia 72.7568
lfoot -23.7566 7.32614
ltoes -10.4395
6
root 52.5275 13.9356 -5.7135 14.787 -85.5226 5.129
lowerback 26.1175 -0.819335 0.906944
upperback 5.08457 -1.23323 -0.480052
thorax -8.87001 -0.762539 -0.625273
lowerneck -5.67853 -0.204458 1.28918
upperneck -14.8784 -0.586131 1.92927
head -3.85481 -0.658027 0.440411
rclavicle 9.0447e-015 1.43125e-014
rhumerus -17.6057 -0.23207 -87.4154
rradius 45.7911
rwrist -10.2147
rhand -19.4064 -6.89177
rfingers 7.12502
rthumb 6.91289 -36.7589
lclavicle 9.0447e-015 1.43125e-014
lhumerus -19.3435 -5.378 84.4731
lradius 46.8987
lwrist 27.3288
lhand -17.9752 13.5519
lfingers 7.12502
lthumb 8.29431 43.3691
rfemur -69.4332 -8.90576 23.1788
rtibia 78.7407
rfoot -27.9157 -9.42759
rtoes 0.2247
lfemur -66.7547 6.6704 -20.8283
ltibia 72.7541
lfoot -23.7548 7.32042
ltoes -10.4432
7
root 52.5276 13.9361 -5.71318 14.7778 -85.5232 5.13969
lowerback 26.1152 -0.819889 0.904793
upperback 5.08499 -1.23431 -0.477943
thorax -8.86831 -0.762963 -0.621376
lowerneck -5.67917 -0.206418 1.28178
upperneck -14.8697 -0.587564 1.93701
head -3.85151 -0.658353 0.444173
rclavicle 1.07344e-014 -9.74045e-015
rhumerus -17.6033 -0.221581 -87.4074
rradius 45.7987
rwrist -10.2207
rhand -19.4073 -6.88636
rfingers 7.12502
rthumb 6.91197 -36.7535
lclavicle 1.07344e-014 -9.74045e-015
lhumerus -19.3479 -5.39025 84.4783
lradius 46.9042
lwrist 27.3406
lhand -17.9608 13.4864
lfingers 7.12502
lthumb 8.3082 43.303
rfemur -69.4318 -8.90611 23.1732
rtibia 78.7421
rfoot -27.9306 -9.39107
rtoes 0.323368
lfemur -66.7552 6.67492 -20.8331
ltibia 72.7512
lfoot -23.7555 7.31776
ltoes -10.4372
8
root 52.5277 13.9363 -5.71284 14.7655 -85.5234 5.15434
lowerback 26.1126 -0.821177 0.902773
upperback 5.08474 -1.23635 -0.476834
thorax -8.86727 -0.763832 -0.618349
lowerneck -5.67815 -0.208263 1.27659
upperneck -14.8617 -0.58878 1.94534
head -3.84877 -0.658728 0.447763
rclavicle -7.95139e-016 1.76918e-014
rhumerus -17.6024 -0.210381 -87.401
rradius 45.8086
rwrist -10.2261
rhand -19.4098 -6.8841
rfingers 7.12502
rthumb 6.9096 -36.7513
lclavicle -7.95139e-016 1.76918e-014
lhumerus -19.3541 -5.40314 84.4823
lradius 46.9143
lwrist 27.3509
lhand -17.945 13.4429
lfingers 7.12502
lthumb 8.32344 43.2589
rfemur -69.4331 -8.90831 23.1703
rtibia 78.7407
rfoot -27.9323 -9.37704
rtoes 0.360842
lfemur -66.7578 6.6788 -20.8383
ltibia 72.7494
lfoot -23.7566 7.31395
ltoes -10.4246
9
root 52.5279 13.9365 -5.71253 14.7825 -85.5244 5.13955
lowerback 26.1124 -0.822976 0.902281
upperback 5.08288 -1.23856 -0.475933
thorax -8.86926 -0.764806 -0.616327
lowerneck -5.67783 -0.206418 1.27945
upperneck -14.8559 -0.586189 1.94509
head -3.84675 -0.657389 0.447084
rclavicle 3.77691e-014 3.83654e-014
rhumerus -17.6034 -0.198729 -87.3964
rradius 45.8183
rwrist -10.2319
rhand -19.411 -6.88562
rfingers 7.12502
rthumb 6.90841 -36.7529
lclavicle 3.77691e-014 3.83654e-014
lhumerus -19.36 -5.41617 84.485
lradius 46.9227
lwrist 27.3585
lhand -17.9274 13.411
lfingers 7.12502
lthumb 8.34038 43.2264
rfemur -69.4352 -8.91 23.1724
rtibia 78.7369
rfoot -27.9247 -9.38341
rtoes 0.342585
lfemur -66.7612 6.68245 -20.8404
ltibia 72.7489
lfoot -23.7573 7.31022
ltoes -10.4134
